<svg id="Capa_1" enable-background="new 0 0 512 512" height="512" viewBox="0 0 512 512" width="512" xmlns="http://www.w3.org/2000/svg"><g><g><path d="m91 181h45v30h-45z" fill="#4d6666"/></g><g><path d="m376 181h45v30h-45z" fill="#3a4d4d"/></g><g><g><path d="m391 512h-270v-362h270z" fill="#a0e65c"/></g></g><path d="m256 150h135v362h-135z" fill="#79cc52"/><g><path d="m241 0h30v45h-30z" fill="#4d6666"/></g><g id="Delete_1_"><g><path d="m181 211h30v240h-30z" fill="#f3f5f9"/></g><g><path d="m241 211h30v240h-30z" fill="#f3f5f9"/></g><g><path d="m301 211h30v240h-30z" fill="#e1e6f0"/></g></g><path d="m256 0h15v45h-15z" fill="#3a4d4d"/><path d="m256 211h15v240h-15z" fill="#e1e6f0"/><g><path d="m316 30h-120c-41.4 0-75 33.6-75 75h270c0-41.4-33.6-75-75-75z" fill="#a0e65c"/></g><path d="m256 105h135c0-41.4-33.6-75-75-75h-60z" fill="#79cc52"/><g><path d="m91 90h330v30h-330z" fill="#79cc52"/></g><path d="m256 90h165v30h-165z" fill="#59b348"/></g></svg>