<svg width="24" height="24" viewBox="0 0 24 24" fill="none" xmlns="http://www.w3.org/2000/svg">
<path d="M12 24C5.383 24 0 18.617 0 12C0 5.383 5.383 0 12 0C18.617 0 24 5.383 24 12C24 18.617 18.617 24 12 24ZM12 1C5.935 1 1 5.935 1 12C1 18.065 5.935 23 12 23C18.065 23 23 18.065 23 12C23 5.935 18.065 1 12 1Z" fill="black"/>
<path d="M12 17.9999C11.861 17.9999 11.729 17.9419 11.635 17.8409L6.51798 12.3579C5.16698 10.9099 5.16698 8.55289 6.51798 7.10589C7.84698 5.68089 10.182 5.67889 11.513 7.10589L12 7.62689L12.487 7.10589C13.817 5.67789 16.152 5.67989 17.482 7.10589C18.833 8.55289 18.833 10.9099 17.483 12.3579L12.365 17.8409C12.271 17.9419 12.139 17.9999 12 17.9999ZM9.01598 6.99989C8.34998 6.99989 7.72298 7.27889 7.24798 7.78689C6.24898 8.85889 6.24898 10.6029 7.24898 11.6759L12 16.7679L16.752 11.6759C17.751 10.6039 17.751 8.85989 16.752 7.78689C15.804 6.77189 14.168 6.76989 13.218 7.78689L12.365 8.70089C12.177 8.90389 11.822 8.90389 11.635 8.70089L10.782 7.78689C10.308 7.27889 9.68098 6.99989 9.01598 6.99989V6.99989Z" fill="black"/>
</svg>
