<svg width="24" height="24" viewBox="0 0 24 24" fill="none" xmlns="http://www.w3.org/2000/svg">
<path d="M12 24C5.383 24 0 18.617 0 12C0 5.383 5.383 0 12 0C18.617 0 24 5.383 24 12C24 18.617 18.617 24 12 24ZM12 1C5.935 1 1 5.935 1 12C1 18.065 5.935 23 12 23C18.065 23 23 18.065 23 12C23 5.935 18.065 1 12 1Z" fill="#096800"/>
<path d="M11.9999 17.9999C11.8609 17.9999 11.7289 17.9419 11.6349 17.8409L6.51795 12.3579C5.16695 10.9099 5.16695 8.55289 6.51795 7.10589C7.84695 5.68089 10.1819 5.67889 11.5129 7.10589L11.9999 7.62689L12.4869 7.10589C13.8169 5.67789 16.1519 5.67989 17.4819 7.10589C18.8329 8.55289 18.8329 10.9099 17.4829 12.3579L12.3649 17.8409C12.2709 17.9419 12.1389 17.9999 11.9999 17.9999ZM9.01595 6.99989C8.34995 6.99989 7.72295 7.27889 7.24795 7.78689C6.24895 8.85889 6.24895 10.6029 7.24895 11.6759L11.9999 16.7679L16.752 11.6759C17.751 10.6039 17.751 8.85989 16.752 7.78689C15.804 6.77189 14.1679 6.76989 13.2179 7.78689L12.3649 8.70089C12.1769 8.90389 11.8219 8.90389 11.6349 8.70089L10.7819 7.78689C10.3079 7.27889 9.68095 6.99989 9.01595 6.99989V6.99989Z" fill="#096800"/>
<path d="M7 7L9.5 6.5L12 8L14.5 6.5L17 7L18 10L17.5 11.5L16.5 12.5L15.5 13.5L14.5 14.5L14 15.5L13 16L12.5 16.5L12 17H11.5L9 14.5L7.5 13L6.5 11.5L6 10.5L6.5 8L7 7Z" fill="#096800"/>
</svg>
