<?xml version="1.0" encoding="utf-8"?>
<!-- Svg Vector Icons : http://www.onlinewebfonts.com/icon -->
<!DOCTYPE svg PUBLIC "-//W3C//DTD SVG 1.1//EN" "http://www.w3.org/Graphics/SVG/1.1/DTD/svg11.dtd">
<svg version="1.1" xmlns="http://www.w3.org/2000/svg" xmlns:xlink="http://www.w3.org/1999/xlink" x="0px" y="0px" viewBox="0 0 1000 1000" enable-background="new 0 0 1000 1000" xml:space="preserve">
<metadata> Svg Vector Icons : http://www.onlinewebfonts.com/icon </metadata>
<g><g transform="translate(0.000000,511.000000) scale(0.100000,-0.100000)"><path d="M3932.1,4990.2c-425.3-69.2-807.1-255.2-1115.7-538.1c-332.3-308.6-581.6-793.3-629.1-1218.6l-13.9-124.6l-668.6-9.9c-662.7-9.9-670.6-9.9-706.2-53.4c-39.6-51.4-29.7,51.5-138.5-1499.5c-95-1341.2-191.9-2722.1-288.8-4069.2C300-3551.8,300-3561.7,383.1-3607.2c25.7-13.9,557.9-19.8,1630.1-19.8l1592.5,2l104.8-83.1C4668-4465.8,5847-4871.3,6812.4-4776.3c882.3,87,1762.6,466.9,2563.8,1105.8c229.5,182,304.6,265.1,304.6,336.3c0,96.9-395.6,443.1-870.4,759.6c-241.3,160.2-743.8,431.3-904.1,486.6c-47.5,15.8-65.3,33.6-65.3,67.3c-2,25.7-61.3,1165.2-134.5,2536.1L7572,3006l-55.4,45.5l-53.4,47.5h-571.7h-571.7l-11.9,95C6171.4,4216.7,5348.5,4968.5,4319.8,5008C4181.3,5014,4031,5006.1,3932.1,4990.2z M4578.9,4669.8c332.3-63.3,646.9-225.5,894.2-459c271-259.1,474.8-652.8,518.3-999l13.9-112.8H4240.6H2476l13.9,91c110.8,745.8,668.6,1331.4,1414.4,1481.7C4084.4,4707.3,4383.1,4707.3,4578.9,4669.8z M2163.5,2297.8c0-457,2-486.6,39.6-524.2c87.1-87,215.6-61.3,257.2,51.4c11.9,27.7,19.8,255.2,19.8,504.5v453h1770.5h1770.5v-490.6c0-470.8,2-494.6,39.6-528.2c59.4-53.4,174.1-49.5,219.6,7.9c33.6,41.5,37.6,87,37.6,528.2v482.7h474.8h472.8l9.9-63.3c15.8-98.9,251.2-4648.9,243.3-4658.8c-5.9-3.9-81.1,9.9-170.1,33.6c-536.1,136.5-1143.4,132.5-1697.3-11.9c-720.1-186-1580.6-678.5-2130.6-1218.6l-176.1-174.1H1985.4H626.4l7.9,93c7.9,95,421.4,5972.3,421.4,5990.1c0,5.9,249.3,9.9,553.9,9.9h553.9V2297.8z M5597.7-2364.9c-77.2-79.1-170.1-193.9-205.7-257.2c-278.9-476.7-229.5-1076.2,124.6-1503.5c55.4-69.2,144.4-154.3,193.9-191.9c51.5-37.6,89-71.2,87.1-75.2c-13.9-11.9-425.3,112.8-597.4,182c-237.4,96.9-595.4,277-801.2,405.5c-205.7,126.6-550,375.9-601.4,433.2c-39.6,41.5-37.6,43.5,29.7,100.9c136.5,120.7,508.4,393.7,680.5,504.5c251.2,158.3,733.9,391.7,979.2,474.8c114.7,37.6,217.6,69.2,229.5,69.2C5730.3-2222.4,5676.9-2287.7,5597.7-2364.9z M7623.4-2313.4c451-166.2,999-478.7,1414.4-811.1c280.9-225.5,273-201.8,118.7-324.4c-245.3-195.9-633-437.2-949.6-595.4c-286.8-140.5-733.9-308.6-919.9-342.2l-69.2-13.8l59.4,43.5c33.6,23.7,116.7,102.9,187.9,176.1c231.5,235.4,356.1,548,356.1,898.1c0,350.1-126.6,652.8-375.9,908l-152.3,156.3l71.2-13.9C7403.9-2240.2,7520.6-2275.9,7623.4-2313.4z M6715.4-2309.5c405.5-87,720.1-415.4,789.3-826.9c81.1-470.8-223.5-961.4-686.5-1103.9c-142.4-43.5-391.7-51.4-540-17.8c-223.5,51.4-476.7,233.4-603.4,433.2c-205.7,324.4-199.8,767.6,11.9,1086.1c144.4,215.6,371.9,373.9,617.2,427.3C6464.2-2275.9,6557.2-2275.9,6715.4-2309.5z"/><path d="M6347.5-2928.7c-144.4-75.2-227.5-207.7-227.5-362c0-417.4,561.8-548,753.7-174.1c41.6,81.1,49.5,237.4,15.8,326.4c-27.7,75.2-132.6,182-209.7,215.6C6594.8-2885.2,6420.7-2889.1,6347.5-2928.7z M6582.9-3229.4c65.3-71.2-9.9-174.1-100.9-138.5c-85.1,31.7-47.5,172.1,45.5,176.1C6539.4-3191.8,6565.1-3209.6,6582.9-3229.4z"/></g></g>
</svg>