<svg width="24" height="24" viewBox="0 0 24 24" fill="none" xmlns="http://www.w3.org/2000/svg">
<g clip-path="url(#clip0)">
<path d="M23.9067 12.3698C24.0318 12.1395 24.0318 11.8609 23.9067 11.6305C21.614 7.40921 17.142 4.54346 12.0005 4.54346C6.85906 4.54346 2.38702 7.40925 0.0943118 11.6305C-0.0307862 11.8609 -0.0307862 12.1395 0.0943118 12.3698C2.38706 16.5911 6.85898 19.4569 12.0005 19.4569C17.142 19.4569 21.6139 16.5911 23.9067 12.3698ZM12.0005 17.72C8.84149 17.72 6.28067 15.1591 6.28067 12.0002C6.28067 8.84125 8.84149 6.28035 12.0005 6.28035C15.1595 6.28035 17.7203 8.84121 17.7203 12.0002C17.7203 15.1592 15.1595 17.72 12.0005 17.72Z" fill="black"/>
<path d="M12 9.08545C11.7593 9.08545 11.5256 9.11482 11.302 9.16976C11.5311 9.43486 11.67 9.78008 11.67 10.1579C11.67 10.9932 10.9928 11.6704 10.1575 11.6704C9.77965 11.6704 9.43443 11.5315 9.16934 11.3024C9.11439 11.5261 9.08502 11.7598 9.08502 12.0004C9.08502 13.6103 10.3901 14.9153 11.9999 14.9153C13.6098 14.9153 14.9148 13.6102 14.9148 12.0004C14.9148 10.3906 13.6098 9.08545 12 9.08545Z" fill="black"/>
</g>
<defs>
<clipPath id="clip0">
<rect width="24" height="24" fill="white"/>
</clipPath>
</defs>
</svg>
