<svg width="12" height="12" viewBox="0 0 12 12" fill="none" xmlns="http://www.w3.org/2000/svg">
<path d="M4.75455 0C2.13146 0 0 2.08292 0 4.64626C0 7.20961 2.13146 9.29253 4.75455 9.29253C5.79243 9.29253 6.75164 8.96584 7.53387 8.41281L11.2134 12L12 11.2313L8.36417 7.66975C9.07866 6.85623 9.5091 5.80036 9.5091 4.64626C9.5091 2.08292 7.37764 0 4.75455 0ZM4.75455 0.546619C7.07502 0.546619 8.94975 2.37865 8.94975 4.64626C8.94975 6.91388 7.07502 8.74591 4.75455 8.74591C2.43409 8.74591 0.559359 6.91388 0.559359 4.64626C0.559359 2.37865 2.43409 0.546619 4.75455 0.546619Z" fill="white"/>
</svg>
